<svg xmlns="http://www.w3.org/2000/svg" viewBox="0 0 135.89 135.89">
  <defs>
    <style>


      .cls-3 {
      fill: #f4f5f2;
      }

      .cls-4 {
      fill: none;
      stroke: #fff;
      stroke-miterlimit: 10;
      stroke-width: 3.73px;
      }
    </style>
  </defs>
    <g id="Layer_2" data-name="Layer 2">
  <a class="svg-icon-link" href="https://www.behance.net/SteveDillon" target="_blank">
      <g id="edits">
        <g id="BeHance">
          <path class="cls-3" d="M60.37,65.32s7.43-.56,7.43-9.27-6.08-13-13.78-13H28.67V91.8H54s15.47.48,15.47-14.39C69.49,77.41,70.17,65.32,60.37,65.32ZM39.84,51.73H54s3.44,0,3.44,5.07-2,5.8-4.32,5.81H39.84ZM53.37,83.14H39.84v-13H54s5.13-.06,5.13,6.7C59.15,82.44,55.4,83.08,53.37,83.14Z" />
          <rect class="cls-3" x="79.65" y="45.94" width="20.11" height="6" />
          <path class="cls-3" d="M90.13,55.47c-18.73,0-18.71,18.72-18.71,18.72S70.13,92.81,90.14,92.81c0,0,16.67,1,16.67-13H98.24s.28,5.24-7.82,5.24c0,0-8.57.58-8.57-8.47h25.24S109.86,55.47,90.13,55.47ZM81.75,70.11s1-7.51,8.58-7.51,7.43,7.51,7.43,7.51Z" />
          <circle class="cls-4" cx="67.95" cy="67.95" r="66.08" transform="translate(-28.14 67.95) rotate(-45)" />
        </g>
      </g>
  </a>
    </g>
</svg>